<svg xmlns:xlink="http://www.w3.org/1999/xlink" xmlns="http://www.w3.org/2000/svg" viewBox="0 0 180 180" width="180"  height="180" >
  <defs>
    <style>
      .cls-1 {
        fill: #f0f6fd;
        stroke: #6D28D9;
      }

      .cls-2 {
        fill: #6D28D9;
      }

      .cls-3 {
        stroke: none;
      }

      .cls-4 {
        fill: none;
      }
    </style>
  </defs>
  <g id="Group_1298" data-name="Group 1298" transform="translate(-2130 -554)">
    <g id="Ellipse_833" data-name="Ellipse 833" class="cls-1" transform="translate(2310 734) rotate(180)">
      <circle class="cls-3" cx="90" cy="90" r="90"/>
      <circle class="cls-4" cx="90" cy="90" r="89.5"/>
    </g>
    <path id="_x31__1_" class="cls-2" d="M89.608,72.572,80.183,44.431a7.113,7.113,0,0,0-6.749-4.867H59.651C63.34,32.824,66.34,25.983,66.34,21.5a21.373,21.373,0,1,0-42.746-.02c0,4.48,3,11.342,6.688,18.062H16.5a7.113,7.113,0,0,0-6.749,4.867L.347,72.572a7.189,7.189,0,0,0,.973,6.455A7.088,7.088,0,0,0,7.1,82H82.858a7.148,7.148,0,0,0,6.749-9.428Zm-44.631-60.7a9.611,9.611,0,1,1-9.567,9.611A9.607,9.607,0,0,1,44.977,11.871ZM83.71,75.464a1.033,1.033,0,0,1-.851.428H7.1A1.034,1.034,0,0,1,6.1,74.527l9.425-28.141a1.048,1.048,0,0,1,.993-.713H33.384a3.625,3.625,0,0,0,.446-.041c4.824,7.941,9.627,14.559,10.033,15.109a1.386,1.386,0,0,0,2.27,0c.405-.55,5.189-7.147,10.012-15.089a1.846,1.846,0,0,0,.345.02H73.454a1.048,1.048,0,0,1,.993.713l9.425,28.141A1.082,1.082,0,0,1,83.71,75.464Z" transform="translate(2175.023 598)"/>
  </g>
</svg>