<svg xmlns:xlink="http://www.w3.org/1999/xlink" xmlns="http://www.w3.org/2000/svg" viewBox="0 0 180 180" width="180"  height="180" >
  <defs>
    <style>
      .cls-1 {
        fill: #ecfaee;
        stroke: #6D28D9;
      }

      .cls-2 {
        fill: #6D28D9;
      }

      .cls-3 {
        stroke: none;
      }

      .cls-4 {
        fill: none;
      }
    </style>
  </defs>
  <g id="Group_1296" data-name="Group 1296" transform="translate(-566 -554)">
    <g id="Ellipse_833" data-name="Ellipse 833" class="cls-1" transform="translate(746 734) rotate(180)">
      <circle class="cls-3" cx="90" cy="90" r="90"/>
      <circle class="cls-4" cx="90" cy="90" r="89.5"/>
    </g>
    <g id="Group_1251" data-name="Group 1251" transform="translate(616 607)">
      <path id="Path_7377" data-name="Path 7377" class="cls-2" d="M64.527,231.956c-5.266.85-10.564,1.476-15.91,2.214,0,1.572.016,3.289,0,4.99a8.492,8.492,0,0,1-5.475,7.942,8.407,8.407,0,0,1-9.312-2.214,8.225,8.225,0,0,1-2.28-5.744v-5.231a112.312,112.312,0,0,1-31.4-6.081c-.016.176-.048.289-.048.385v26.715a4.2,4.2,0,0,0,1.445,3.113,5.144,5.144,0,0,0,3.789,1.2q34.943-.024,69.9-.016a4.476,4.476,0,0,0,4.832-4.8V227.8A84.924,84.924,0,0,1,64.527,231.956Z" transform="translate(-0.084 -191.249)"/>
      <path id="Path_7378" data-name="Path 7378" class="cls-2" d="M223.819,273.332a3.814,3.814,0,0,0,3.853,3.386,3.921,3.921,0,0,0,4.126-3.177,54.384,54.384,0,0,0,.048-5.841H223.8C223.787,269.609,223.675,271.487,223.819,273.332Z" transform="translate(-187.825 -224.747)"/>
      <path id="Path_7379" data-name="Path 7379" class="cls-2" d="M.851,32.219a111.747,111.747,0,0,0,34.4,6.242A129.876,129.876,0,0,0,60.2,37.033a94.689,94.689,0,0,0,19.217-4.926A.763.763,0,0,0,80,31.24c-.016-5.263,0-10.526-.016-15.8a4.415,4.415,0,0,0-4.624-4.653H57.78V3.851A3.863,3.863,0,0,0,53.927,0H26.073A3.863,3.863,0,0,0,22.22,3.851V10.8H4.865A4.463,4.463,0,0,0,.016,15.644c0,5.134.016,10.269-.016,15.4A1.042,1.042,0,0,0,.851,32.219ZM28,5.776H51.985V10.8H28Z"/>
    </g>
  </g>
</svg>