<?xml version="1.0" encoding="UTF-8"?><svg id="a" xmlns="http://www.w3.org/2000/svg" xmlns:xlink="http://www.w3.org/1999/xlink" viewBox="0 0 169 39"><defs><linearGradient id="b" x1="3.56" y1="37.12" x2="16.29" y2="6.99" gradientUnits="userSpaceOnUse"><stop offset="0" stop-color="#c600ff"/><stop offset="1" stop-color="#ffc300"/></linearGradient><linearGradient id="c" x1="151.41" y1="35.73" x2="163.52" y2="6.23" gradientUnits="userSpaceOnUse"><stop offset="0" stop-color="#0eb191"/><stop offset="1" stop-color="#2dc3e8"/></linearGradient></defs><path d="m27.96,12.29c1.16,0,2.27.21,3.33.63,1.06.42,1.99,1.01,2.78,1.77.8.76,1.43,1.66,1.92,2.69.48,1.04.72,2.16.72,3.36v6.69c0,.63-.22,1.17-.67,1.63-.45.46-.99.7-1.65.72-.65,0-1.21-.21-1.68-.63-.47-.42-.71-.96-.71-1.61v-6.51c0-.55-.1-1.08-.31-1.57-.21-.49-.49-.92-.87-1.28-.37-.36-.81-.65-1.3-.87-.49-.22-1.03-.33-1.61-.33-.53,0-1.04.1-1.52.31-.48.21-.9.48-1.27.81-.36.34-.65.75-.87,1.23-.22.48-.33.99-.33,1.52v6.58c0,.63-.24,1.18-.72,1.65-.48.47-1.04.71-1.66.71s-1.18-.22-1.66-.65c-.48-.43-.72-.96-.72-1.59v-6.51c.02-1.21.26-2.34.71-3.4.45-1.06,1.06-1.99,1.84-2.78.78-.8,1.71-1.42,2.77-1.88,1.06-.46,2.22-.69,3.47-.69Z" style="fill:#fff;"/><path d="m41.48,6.97c.63,0,1.16.23,1.61.71.45.47.67,1.02.67,1.65s-.22,1.18-.67,1.65c-.45.47-.98.71-1.61.71-.7-.02-1.27-.25-1.72-.67-.45-.42-.67-1.02-.67-1.79.02-.63.27-1.16.74-1.59.47-.43,1.02-.65,1.65-.65Zm0,5.53c.63,0,1.15.23,1.57.69.42.46.66,1.01.71,1.66v12.8c0,.65-.21,1.19-.61,1.63-.41.43-.96.67-1.66.72-.63,0-1.16-.19-1.59-.58-.43-.39-.7-.93-.8-1.63v-13.09c.05-.63.3-1.14.76-1.56.46-.41,1-.63,1.63-.65Z" style="fill:#fff;"/><path d="m51.25,25.23v2.24c0,.63-.24,1.19-.72,1.68-.48.49-1.05.74-1.7.74s-1.19-.24-1.7-.71c-.51-.47-.76-1.04-.76-1.72V9.21c0-.63.24-1.19.72-1.68.48-.49,1.06-.74,1.74-.74s1.25.24,1.72.71.71,1.04.71,1.72v9.08l5.46-5.46c.48-.48,1.05-.72,1.7-.71.65.01,1.23.25,1.74.71.48.48.72,1.06.72,1.72s-.24,1.24-.72,1.72l-3.44,3.47,3.87,6.47c.36.6.46,1.22.29,1.86-.17.64-.53,1.13-1.08,1.46-.6.36-1.23.46-1.88.29-.65-.17-1.15-.54-1.48-1.12l-3.25-5.42-1.92,1.95Z" style="fill:#fff;"/><path d="m65.1,6.83c.31-.02.61.03.9.16.29.13.55.31.78.52.23.22.4.48.52.78.12.3.18.61.18.92v4.16c.84-.43,1.72-.72,2.62-.85.9-.13,1.8-.13,2.69,0,.89.13,1.76.4,2.6.8.84.4,1.63.93,2.35,1.61.84.87,1.48,1.8,1.9,2.8.42,1,.63,2.14.63,3.42,0,1.21-.24,2.34-.71,3.4-.47,1.06-1.1,1.99-1.9,2.78s-1.72,1.42-2.78,1.88c-1.06.46-2.18.69-3.36.69s-2.27-.24-3.33-.71c-1.06-.47-2-1.1-2.8-1.9-.81-.8-1.45-1.72-1.93-2.78-.48-1.06-.72-2.18-.72-3.36v-12.11c0-.29.07-.57.22-.85.14-.28.33-.52.54-.72.22-.2.46-.37.74-.49.28-.12.56-.17.85-.14Zm2.39,14.32c0,.55.11,1.08.33,1.57.22.49.51.92.89,1.28.37.36.8.65,1.28.87.48.22,1,.33,1.56.33s1.04-.11,1.54-.33c.49-.22.93-.51,1.3-.87.37-.36.67-.79.89-1.28.22-.49.33-1.02.33-1.57s-.11-1.08-.33-1.57c-.22-.49-.51-.92-.89-1.28-.37-.36-.81-.65-1.3-.87-.49-.22-1.01-.33-1.54-.33s-1.07.11-1.56.34c-.48.23-.91.53-1.28.9s-.67.81-.89,1.3c-.22.49-.33.99-.33,1.5Z" style="fill:#fff;"/><path d="m84.08,29.93c-.65,0-1.19-.21-1.63-.63-.43-.42-.68-.98-.72-1.68v-6.69c.02-1.16.27-2.25.74-3.27.47-1.02,1.1-1.92,1.88-2.68.78-.76,1.7-1.36,2.75-1.81,1.05-.45,2.16-.69,3.35-.74.67,0,1.24.23,1.68.69.45.46.69,1.01.74,1.66,0,.65-.23,1.2-.69,1.65-.46.45-1.03.68-1.7.71-.55,0-1.07.1-1.56.31-.48.21-.9.49-1.27.85s-.65.79-.87,1.28c-.22.49-.33,1.03-.33,1.61v6.58c-.05.63-.28,1.15-.71,1.55-.42.41-.98.61-1.68.61Z" style="fill:#fff;"/><path d="m103.14,12.43c1.08.12,2.1.43,3.06.94.95.51,1.77,1.15,2.46,1.93.69.78,1.23,1.68,1.63,2.68.4,1,.6,2.06.6,3.16v6.4c0,.65-.24,1.21-.72,1.66-.48.46-1.03.69-1.63.69-.84,0-1.52-.39-2.03-1.16-.12.05-.23.1-.33.16-.1.06-.19.11-.29.16-.58.27-1.17.47-1.77.61-.63.14-1.29.22-1.99.22-1.81,0-3.42-.49-4.85-1.46-1.42-.98-2.48-2.24-3.18-3.78-.24-.55-.43-1.12-.56-1.7-.13-.58-.2-1.18-.2-1.81s.07-1.23.2-1.81c.13-.58.32-1.14.56-1.7.7-1.57,1.76-2.83,3.18-3.8,1.42-.96,3.04-1.45,4.85-1.45h.52c.16,0,.32.01.49.04Zm-1.05,12.77c.55,0,1.08-.1,1.57-.31.49-.2.92-.49,1.28-.85s.65-.79.87-1.28c.22-.49.33-1.03.33-1.61,0-.53-.11-1.04-.33-1.54-.22-.49-.51-.93-.89-1.3-.37-.37-.81-.67-1.3-.89-.49-.22-1.01-.33-1.54-.33s-1.04.11-1.52.33c-.48.22-.91.51-1.28.89s-.67.81-.89,1.3c-.22.49-.33,1.01-.33,1.54s.11,1.08.34,1.57c.23.49.53.92.9,1.28.37.36.8.65,1.28.87.48.22.98.33,1.48.33Z" style="fill:#fff;"/><path d="m121.91,12.29c1.16,0,2.27.21,3.33.63,1.06.42,1.99,1.01,2.78,1.77.8.76,1.43,1.66,1.92,2.69.48,1.04.72,2.16.72,3.36v6.69c0,.63-.22,1.17-.67,1.63-.45.46-.99.7-1.65.72-.65,0-1.21-.21-1.68-.63-.47-.42-.71-.96-.71-1.61v-6.51c0-.55-.1-1.08-.31-1.57-.2-.49-.49-.92-.87-1.28-.37-.36-.81-.65-1.3-.87-.49-.22-1.03-.33-1.61-.33-.53,0-1.04.1-1.52.31-.48.21-.9.48-1.27.81-.36.34-.65.75-.87,1.23-.22.48-.33.99-.33,1.52v6.58c0,.63-.24,1.18-.72,1.65-.48.47-1.04.71-1.66.71s-1.18-.22-1.66-.65c-.48-.43-.72-.96-.72-1.59v-6.51c.02-1.21.26-2.34.71-3.4.45-1.06,1.06-1.99,1.84-2.78.78-.8,1.71-1.42,2.77-1.88,1.06-.46,2.22-.69,3.47-.69Z" style="fill:#fff;"/><path d="m147.41,6.86c.63,0,1.18.22,1.65.67.47.45.71,1.02.71,1.72v11.9c0,1.18-.24,2.3-.71,3.36-.47,1.06-1.11,1.99-1.92,2.78s-1.74,1.43-2.8,1.9c-1.06.47-2.17.71-3.33.71s-2.27-.23-3.33-.69c-1.06-.46-2-1.08-2.8-1.88-.81-.8-1.45-1.72-1.93-2.78-.48-1.06-.72-2.19-.72-3.4s.24-2.3.71-3.36c.47-1.06,1.11-1.99,1.92-2.78.81-.8,1.74-1.43,2.8-1.9,1.06-.47,2.18-.71,3.36-.71,1.45,0,2.78.33,4.01.98v-4.16c0-.31.07-.61.2-.9.13-.29.31-.54.52-.76s.47-.39.76-.51c.29-.12.59-.18.9-.18Zm-6.4,10.23c-.55,0-1.08.11-1.57.33-.49.22-.93.51-1.3.89s-.67.81-.89,1.3c-.22.49-.33,1.01-.33,1.54s.11,1.08.33,1.57c.22.49.51.92.89,1.28.37.36.81.65,1.3.87.49.22,1.02.33,1.57.33s1.04-.11,1.52-.33c.48-.22.91-.51,1.28-.89s.67-.8.89-1.28c.22-.48.33-1,.33-1.56s-.11-1.11-.33-1.61c-.22-.49-.51-.92-.89-1.28-.37-.36-.8-.64-1.28-.85-.48-.2-.99-.31-1.52-.31Z" style="fill:#fff;"/><path d="m2.18,19.62v-2.62c1.37,0,2.33-.27,2.86-.82.53-.54.8-1.41.8-2.6v-2.32c0-1.55.23-2.78.68-3.69.45-.9,1.08-1.57,1.88-2,.8-.43,1.73-.71,2.79-.83,1.06-.12,2.19-.18,3.4-.18v4.15c-.94,0-1.65.11-2.12.34-.47.23-.79.58-.95,1.05-.16.47-.24,1.07-.24,1.8v3.11c0,.6-.12,1.17-.36,1.72-.24.55-.68,1.04-1.33,1.47-.64.43-1.56.77-2.75,1.02-1.19.25-2.74.38-4.65.38Zm0,2.38v-4.99h4.63v4.99H2.18Zm12.4,12.43c-1.21,0-2.34-.06-3.4-.18-1.06-.12-1.99-.4-2.79-.83-.8-.43-1.43-1.1-1.88-2-.45-.9-.68-2.13-.68-3.69v-2.31c0-1.19-.27-2.06-.8-2.6-.53-.54-1.49-.82-2.86-.82v-2.62c1.91,0,3.46.12,4.65.37,1.19.25,2.11.59,2.75,1.02.64.43,1.08.92,1.33,1.47s.36,1.12.36,1.72v3.11c0,.73.08,1.33.24,1.8s.48.82.95,1.05c.47.23,1.18.34,2.12.34v4.15Z" style="fill:url(#b);"/><path d="m154.42,4.57c1.21,0,2.35.06,3.4.18,1.05.12,1.98.4,2.78.83.8.43,1.43,1.1,1.88,2,.45.9.68,2.13.68,3.69v2.32c0,1.19.27,2.06.8,2.6.54.54,1.49.82,2.85.82v2.62c-1.9,0-3.45-.13-4.65-.38-1.2-.25-2.11-.59-2.76-1.02-.64-.43-1.09-.92-1.33-1.47-.24-.55-.36-1.12-.36-1.72v-3.11c0-.73-.08-1.33-.24-1.8-.16-.47-.47-.82-.95-1.05-.47-.23-1.18-.34-2.13-.34v-4.15Zm12.4,14.82v2.62c-1.37,0-2.32.27-2.85.82-.54.54-.8,1.41-.8,2.6v2.31c0,1.55-.23,2.78-.68,3.69-.45.9-1.08,1.57-1.88,2-.8.43-1.73.71-2.78.83-1.05.12-2.19.18-3.4.18v-4.15c.95,0,1.66-.11,2.13-.34.47-.23.79-.58.95-1.05.16-.47.24-1.07.24-1.8v-3.11c0-.6.12-1.17.36-1.72.24-.55.68-1.04,1.33-1.47.64-.43,1.56-.77,2.76-1.02,1.2-.25,2.74-.37,4.65-.37Zm0-2.38v4.99h-4.63v-4.99h4.63Z" style="fill:url(#c);"/></svg>