<svg xmlns:xlink="http://www.w3.org/1999/xlink" xmlns="http://www.w3.org/2000/svg" viewBox="0 0 180 180" width="180"  height="180" >
  <defs>
    <style>
      .cls-1 {
        fill: #fff8e5;
        stroke: #6D28D9;
      }

      .cls-2 {
        fill: #6D28D9;
      }

      .cls-3 {
        stroke: none;
      }

      .cls-4 {
        fill: none;
      }
    </style>
  </defs>
  <g id="Group_1297" data-name="Group 1297" transform="translate(-1350 -554)">
    <g id="Ellipse_833" data-name="Ellipse 833" class="cls-1" transform="translate(1530 734) rotate(180)">
      <circle class="cls-3" cx="90" cy="90" r="90"/>
      <circle class="cls-4" cx="90" cy="90" r="89.5"/>
    </g>
    <path id="_x31_0_1_" class="cls-2" d="M73.135,38.261V33.189a33.126,33.126,0,1,0-66.251.019v5.072A11.3,11.3,0,0,0,0,48.665v8.652a11.3,11.3,0,0,0,11.274,11.3h1.47a6.605,6.605,0,0,0,6.586-6.6V43.947a6.605,6.605,0,0,0-6.586-6.6h-.279V33.17a27.544,27.544,0,1,1,55.088.037v4.177h-.3a6.605,6.605,0,0,0-6.586,6.6V62.052a6.6,6.6,0,0,0,5.414,6.489,12.132,12.132,0,0,1-11.051,9.248A5.907,5.907,0,0,0,50.2,75.253H44.484a5.873,5.873,0,0,0,0,11.747H50.2a5.872,5.872,0,0,0,5.414-3.636,17.737,17.737,0,0,0,16.2-15.14A11.339,11.339,0,0,0,80,57.354V48.665A11.3,11.3,0,0,0,73.135,38.261ZM50.214,84.837Z" transform="translate(1400 601)"/>
  </g>
</svg>